
<svg width="195px" height="38px" viewBox="0 0 195 38" version="1.1" xmlns="http://www.w3.org/2000/svg" xmlns:xlink="http://www.w3.org/1999/xlink">
    <g id="Page-1" stroke="none" stroke-width="1" fill="none" fill-rule="evenodd">
        <g id="logo" transform="translate(-4.000000, -17.000000)">
            <rect id="backgroundrect" x="0" y="0" width="203" height="71"></rect>
            <g id="Layer-1" fill="#0F7A86">
                <g id="svg_2">
                    <g id="svg_3">
                        <g id="dS2g7F0Mp" font-family="OpenSans-Extrabold, Open Sans" font-size="50" font-weight="600">
                            <g id="svg_4" transform="translate(0.234375, 0.070389)">
                                <g id="cvwokZKtT" transform="translate(0.770000, 0.595239)">
                                    <text id="COLLAB">
                                        <tspan x="0.995625" y="53.3343719">COLLAB</tspan>
                                    </text>
                                </g>
                            </g>
                        </g>
                        <g id="svg_5" transform="translate(43.000000, 20.000000)" fill-rule="nonzero">
                            <g id="svg_6">
                                <path d="M20.6495028,15.5514435 C20.6495028,23.8353324 16.1058665,30.5634805 10.5074574,30.5634805 C4.9090483,30.5634805 0.365411932,23.8353324 0.365411932,15.5514435 C0.365411932,7.26181384 4.9090483,0.533665692 10.5074574,0.533665692 C16.1058665,0.533665692 20.6495028,7.26181384 20.6495028,15.5514435 Z" id="b1mCVcGYSR"></path>
                            </g>
                        </g>
                        <g id="svg_7" transform="translate(140.000000, 20.000000)" fill-rule="nonzero">
                            <g id="svg_8">
                                <polygon id="b411Ve2VJj" points="20.27 20 0.65 20 10.46 0.0897435897"></polygon>
                            </g>
                        </g>
                        <g id="svg_9" transform="translate(176.000000, 36.000000)" fill-rule="nonzero">
                            <g id="svg_10">
                                <path d="M15.52,7.0336 C15.52,10.8192 12.1454545,13.8992 7.99030303,13.8992 C3.83515152,13.8992 0.460606061,10.8192 0.460606061,7.0336 C0.460606061,3.2424 3.83515152,0.168 7.99030303,0.168 C12.1454545,0.168 15.52,3.2424 15.52,7.0336 Z" id="dQEFqKKKv"></path>
                            </g>
                        </g>
                        <g id="svg_11" transform="translate(176.000000, 20.000000)" fill-rule="nonzero">
                            <g id="svg_12">
                                <path d="M15.52,7.0784 C15.52,10.8696 12.1454545,13.944 7.99030303,13.944 C3.83515152,13.944 0.460606061,10.8696 0.460606061,7.0784 C0.460606061,3.2928 3.83515152,0.2128 7.99030303,0.2128 C12.1454545,0.2128 15.52,3.2928 15.52,7.0784 Z" id="eMnfHON4J"></path>
                            </g>
                        </g>
                    </g>
                </g>
            </g>
        </g>
    </g>
</svg>